<svg width="539.856px" height="539.856px" viewBox="0 -189.93 539.856 539.856" xmlns="http://www.w3.org/2000/svg"><g transform="scale(4.00216 4.0011)"><path fill="#FFF" d="M29.923 3.38c0-.635-.152-1.116-.458-1.444-.306-.328-.781-.491-1.426-.491-.127 0-.26.002-.396.007l-.345.015V5.28c.093.015.2.026.323.033.122.007.232.011.33.011.288 0 .553-.038.795-.114a1.63 1.63 0 0 0 .624-.352c.173-.159.309-.36.407-.605.097-.244.146-.535.146-.872zm.712-.043c0 .425-.068.797-.202 1.114a2.177 2.177 0 0 1-.568.8 2.411 2.411 0 0 1-.873.484 3.655 3.655 0 0 1-1.115.161c-.249 0-.474-.005-.674-.015-.2-.01-.394-.014-.58-.014V.924l.679-.018c.261-.008.529-.011.803-.011.396 0 .75.047 1.063.143.313.095.578.242.796.44.217.198.383.45.498.759.115.308.173.674.173 1.1zm3.351.682c0-.416-.084-.739-.253-.968-.169-.23-.422-.345-.759-.345-.132 0-.26.026-.385.077a.892.892 0 0 0-.33.238 1.186 1.186 0 0 0-.227.407 1.8 1.8 0 0 0-.085.583c0 .445.087.784.26 1.016.174.232.43.348.767.348a.954.954 0 0 0 .389-.08.873.873 0 0 0 .322-.25 1.25 1.25 0 0 0 .22-.421c.054-.169.081-.37.081-.605zm.69-.037c0 .274-.043.53-.129.766a1.92 1.92 0 0 1-.36.62 1.637 1.637 0 0 1-.56.414c-.22.1-.465.15-.734.15-.249 0-.474-.036-.674-.11a1.307 1.307 0 0 1-.514-.337 1.556 1.556 0 0 1-.33-.575 2.619 2.619 0 0 1-.117-.833c0-.269.04-.52.121-.751.08-.233.198-.435.352-.609a1.66 1.66 0 0 1 .561-.41c.22-.1.467-.151.74-.151.235 0 .453.033.653.099s.374.172.521.319c.147.147.262.336.345.568.083.233.124.512.124.84zm4.81 1.885h-.74l-.727-2.149a4.578 4.578 0 0 1-.106-.352 44.86 44.86 0 0 0-.099-.374h-.007a12.499 12.499 0 0 1-.257.917l-.609 1.958h-.733l-1.122-3.645h.726l.557 1.943c.05.171.096.338.14.499l.124.455h.008l.117-.477c.04-.156.083-.31.132-.462l.623-1.958h.704l.631 1.936.095.304c.03.09.055.173.077.246a4.752 4.752 0 0 1 .107.418h.007c.04-.156.077-.306.114-.447.036-.142.082-.306.135-.492l.587-1.965h.697l-1.181 3.645zm4.239 0V3.52c0-.264-.043-.467-.129-.609-.085-.141-.25-.212-.495-.212a.822.822 0 0 0-.418.11 1.031 1.031 0 0 0-.326.3 1.51 1.51 0 0 0-.213.451 1.97 1.97 0 0 0-.077.561v1.746h-.66V2.222h.638c0 .112-.003.24-.01.385a2.398 2.398 0 0 1-.048.385H42c.108-.25.27-.451.488-.605.218-.154.483-.231.796-.231.21 0 .385.03.524.092a.883.883 0 0 1 .52.62c.037.141.056.293.056.454v2.545h-.66zm1.899 0V.513h.66v5.354h-.66zm4.297-1.848c0-.416-.084-.739-.253-.968-.168-.23-.421-.345-.759-.345-.132 0-.26.026-.385.077a.892.892 0 0 0-.33.238 1.186 1.186 0 0 0-.227.407 1.8 1.8 0 0 0-.084.583c0 .445.086.784.26 1.016.174.232.429.348.766.348a.954.954 0 0 0 .389-.08.873.873 0 0 0 .323-.25 1.25 1.25 0 0 0 .22-.421c.053-.169.08-.37.08-.605zm.69-.037c0 .274-.043.53-.129.766a1.92 1.92 0 0 1-.359.62 1.637 1.637 0 0 1-.561.414c-.22.1-.464.15-.733.15-.25 0-.475-.036-.675-.11a1.307 1.307 0 0 1-.513-.337 1.556 1.556 0 0 1-.33-.575 2.619 2.619 0 0 1-.118-.833c0-.269.04-.52.121-.751.081-.233.198-.435.352-.609a1.66 1.66 0 0 1 .561-.41c.22-.1.467-.151.741-.151.235 0 .452.033.653.099.2.066.374.172.52.319.147.147.262.336.345.568.083.233.125.512.125.84zm2.823.176c-.303 0-.554.02-.752.059-.198.039-.355.09-.473.154a.622.622 0 0 0-.249.22.513.513 0 0 0-.073.264c0 .161.05.294.15.4.1.104.236.157.407.157a.835.835 0 0 0 .403-.099c.123-.066.228-.154.316-.264.088-.11.155-.235.201-.374.047-.14.07-.28.07-.422v-.095zm.037 1.709c0-.127 0-.255.003-.382s.014-.242.033-.344h-.014c-.088.225-.241.413-.459.564a1.332 1.332 0 0 1-.78.228c-.304 0-.548-.09-.734-.272-.186-.18-.279-.418-.279-.711 0-.396.191-.704.572-.924.382-.22.922-.33 1.621-.33v-.242c0-.254-.057-.449-.172-.583-.115-.134-.324-.202-.627-.202a2.23 2.23 0 0 0-.547.074 2.051 2.051 0 0 0-.51.198l-.139-.536a3.478 3.478 0 0 1 1.298-.256c.264 0 .483.029.657.088.173.058.313.14.418.245a.853.853 0 0 1 .22.382c.041.149.062.311.062.487v1.467a40.74 40.74 0 0 0 .015 1.049h-.638zm4.055-3.095a2.366 2.366 0 0 0-.33-.062 2.792 2.792 0 0 0-.315-.019c-.176 0-.335.027-.477.081a.882.882 0 0 0-.363.257c-.1.117-.178.269-.235.454-.056.186-.084.411-.084.675 0 .396.065.7.194.913.13.213.334.319.613.319a.737.737 0 0 0 .436-.132c.125-.088.229-.2.312-.334a1.58 1.58 0 0 0 .187-.45 2.02 2.02 0 0 0 .062-.492v-1.21zm.022 3.095c0-.103.004-.225.011-.367a2.22 2.22 0 0 1 .048-.374l-.015-.007a1.31 1.31 0 0 1-.473.594c-.213.146-.463.22-.752.22-.45 0-.786-.153-1.008-.459-.222-.305-.334-.724-.334-1.257 0-.318.044-.604.132-.858.088-.255.214-.47.378-.646.164-.176.362-.31.594-.403.232-.093.493-.14.781-.14.098 0 .197.004.297.012l.319.025V.513h.66v5.354h-.638zm3.483 0V2.222h.66v3.645h-.66zm.77-4.796a.404.404 0 0 1-.128.3.43.43 0 0 1-.312.125.438.438 0 0 1-.311-.121.4.4 0 0 1-.129-.304c0-.123.043-.225.129-.308a.43.43 0 0 1 .311-.125.43.43 0 0 1 .44.433zm3.454 4.796V3.52c0-.264-.042-.467-.128-.609-.086-.141-.25-.212-.495-.212a.822.822 0 0 0-.418.11 1.031 1.031 0 0 0-.326.3 1.51 1.51 0 0 0-.213.451 1.97 1.97 0 0 0-.077.561v1.746h-.66V2.222h.638c0 .112-.004.24-.011.385a2.398 2.398 0 0 1-.048.385h.015c.108-.25.27-.451.488-.605.217-.154.482-.231.795-.231.21 0 .385.03.525.092a.883.883 0 0 1 .52.62c.037.141.055.293.055.454v2.545h-.66zm5.676-3.095a2.366 2.366 0 0 0-.33-.062 2.792 2.792 0 0 0-.315-.019c-.176 0-.335.027-.477.081a.882.882 0 0 0-.363.257c-.1.117-.178.269-.234.454-.057.186-.085.411-.085.675 0 .396.065.7.195.913.13.213.333.319.612.319a.737.737 0 0 0 .436-.132c.125-.088.229-.2.312-.334a1.58 1.58 0 0 0 .187-.45 2.02 2.02 0 0 0 .062-.492v-1.21zm.022 3.095c0-.103.004-.225.011-.367a2.22 2.22 0 0 1 .048-.374l-.015-.007a1.31 1.31 0 0 1-.473.594c-.212.146-.463.22-.751.22-.45 0-.786-.153-1.009-.459-.222-.305-.333-.724-.333-1.257 0-.318.044-.604.132-.858.088-.255.214-.47.377-.646.164-.176.362-.31.594-.403.233-.093.493-.14.781-.14.098 0 .197.004.297.012l.32.025V.513h.66v5.354h-.639zm3.975-2.31c.01-.279-.059-.501-.205-.668-.147-.166-.35-.249-.609-.249a.792.792 0 0 0-.598.25c-.159.166-.258.388-.297.667h1.709zm.675.132c0 .078-.008.19-.022.337h-2.384c-.014.48.076.827.272 1.045.195.218.489.326.88.326.176 0 .353-.018.531-.055a2.39 2.39 0 0 0 .51-.165l.095.528c-.185.074-.385.13-.597.169-.213.04-.434.059-.664.059-.557 0-.981-.15-1.272-.451-.291-.301-.437-.774-.437-1.42 0-.273.037-.526.11-.758a1.81 1.81 0 0 1 .32-.605c.139-.171.309-.305.509-.4.2-.095.43-.143.69-.143.254 0 .474.04.66.121.185.08.337.19.454.33.117.14.204.302.26.488.057.185.085.383.085.594zM31.617 11.293a16.776 16.776 0 0 1-.425-1.349h-.03c-.058.215-.122.433-.19.653-.068.22-.142.447-.22.682l-1.32 3.666h3.505l-1.32-3.652zm2.494 7.04l-.822-2.317H29.08l-.821 2.317H26.88l3.608-9.9h1.496l3.637 9.9h-1.51zm7.817-3.872c0-.792-.13-1.4-.389-1.826-.259-.425-.667-.638-1.224-.638-.333 0-.624.088-.873.264-.25.176-.457.399-.623.668a3.16 3.16 0 0 0-.374.902c-.083.332-.125.66-.125.982v2.406c.381.117.812.176 1.29.176.353 0 .67-.054.954-.162.284-.107.526-.278.726-.513.2-.235.357-.538.47-.91.112-.37.168-.82.168-1.349zm1.379-.117c0 1.31-.33 2.317-.99 3.021-.66.704-1.582 1.056-2.765 1.056-.225 0-.433-.005-.623-.014a4.781 4.781 0 0 1-.609-.074v3.623H37V11.044h1.276c0 .205-.007.452-.022.74a4.155 4.155 0 0 1-.095.741l.029.015a2.58 2.58 0 0 1 .939-1.195c.42-.289.924-.433 1.51-.433.86 0 1.52.29 1.98.873.46.581.69 1.435.69 2.559zm6.805.117c0-.792-.13-1.4-.389-1.826-.259-.425-.667-.638-1.224-.638-.333 0-.624.088-.873.264-.25.176-.457.399-.623.668a3.16 3.16 0 0 0-.374.902c-.083.332-.125.66-.125.982v2.406c.381.117.812.176 1.29.176.353 0 .67-.054.954-.162.284-.107.526-.278.726-.513.2-.235.357-.538.47-.91.112-.37.168-.82.168-1.349zm1.379-.117c0 1.31-.33 2.317-.99 3.021-.66.704-1.582 1.056-2.765 1.056-.225 0-.433-.005-.623-.014a4.781 4.781 0 0 1-.609-.074v3.623h-1.32V11.044h1.276c0 .205-.007.452-.022.74a4.155 4.155 0 0 1-.095.741l.029.015a2.58 2.58 0 0 1 .939-1.195c.42-.289.924-.433 1.51-.433.86 0 1.52.29 1.98.873.46.581.69 1.435.69 2.559zm10.501 1.085a2.807 2.807 0 0 1-1.005 2.178c-.317.27-.701.48-1.151.631-.45.152-.953.227-1.51.227-.411 0-.798-.024-1.16-.073a7.4 7.4 0 0 1-1.011-.205l.161-1.291c.313.127.645.225.997.293.352.069.714.103 1.086.103.283 0 .555-.032.814-.095.259-.064.486-.162.682-.294.195-.132.352-.305.469-.52.117-.215.176-.475.176-.778 0-.371-.11-.667-.33-.887-.22-.22-.496-.41-.829-.572-.332-.161-.691-.31-1.078-.447a5.358 5.358 0 0 1-1.078-.521 2.809 2.809 0 0 1-.828-.8c-.22-.322-.33-.747-.33-1.275 0-.411.075-.787.227-1.13a2.46 2.46 0 0 1 .667-.887c.294-.25.655-.442 1.086-.58.43-.136.924-.205 1.481-.205a9.6 9.6 0 0 1 .895.044c.313.03.61.079.894.147l-.161 1.188a6.982 6.982 0 0 0-.836-.19 5.258 5.258 0 0 0-.865-.074c-.675 0-1.176.14-1.504.418-.327.279-.491.653-.491 1.122 0 .352.112.638.337.858.225.22.504.408.836.565.333.156.697.305 1.093.447.396.142.76.32 1.093.535.332.215.61.484.836.807.225.323.337.743.337 1.261zm5.661 2.86a6.495 6.495 0 0 1-.718.118 6.79 6.79 0 0 1-.748.044c-.372 0-.682-.04-.932-.118a1.277 1.277 0 0 1-.601-.381 1.556 1.556 0 0 1-.323-.682 4.58 4.58 0 0 1-.095-1.005v-4.194H62.74v-1.027h1.496V8.683l1.32-.367v2.728h2.039v1.027h-2.039v3.725c0 .303.015.552.044.748.03.196.086.352.169.47.083.117.19.197.322.241.132.044.301.066.506.066.333 0 .64-.039.924-.117l.132 1.085zm6.512-3.652c0-.83-.168-1.476-.506-1.936-.337-.46-.843-.689-1.518-.689-.264 0-.52.051-.77.154-.249.103-.469.262-.66.477-.19.215-.342.486-.454.814-.113.327-.169.716-.169 1.166 0 .89.174 1.567.52 2.031.348.464.859.697 1.533.697.274 0 .533-.054.778-.162.244-.107.46-.273.645-.498.186-.225.332-.506.44-.844.108-.337.161-.74.161-1.21zm1.379-.073c0 .548-.086 1.058-.257 1.533-.17.474-.41.887-.718 1.239a3.275 3.275 0 0 1-1.122.829c-.44.2-.93.3-1.467.3-.499 0-.948-.073-1.35-.22a2.614 2.614 0 0 1-1.026-.674 3.111 3.111 0 0 1-.66-1.152c-.156-.464-.235-1.019-.235-1.664 0-.538.081-1.04.242-1.504.162-.464.396-.87.704-1.217a3.32 3.32 0 0 1 1.122-.821c.44-.2.934-.301 1.482-.301.469 0 .904.066 1.305.198.4.132.748.345 1.041.638.294.293.523.672.69 1.137.166.464.249 1.024.249 1.679zm5.427-2.347c-.773-.137-1.345.066-1.716.609-.372.543-.558 1.4-.558 2.574v2.933h-1.32v-7.289h1.276c0 .225-.012.494-.036.807-.025.313-.066.62-.125.924h.03c.078-.255.183-.501.315-.741s.3-.447.506-.623c.205-.176.447-.313.726-.411.278-.098.599-.127.96-.088l-.058 1.305zm5.793 1.496c.02-.557-.117-1.002-.41-1.334-.294-.333-.7-.499-1.218-.499-.48 0-.878.166-1.195.499-.318.332-.516.777-.594 1.334h3.417zm1.35.264c0 .157-.015.382-.045.675h-4.766c-.03.958.151 1.655.542 2.09.391.435.978.653 1.76.653.352 0 .707-.037 1.064-.11a4.78 4.78 0 0 0 1.019-.33l.19 1.056c-.37.146-.77.259-1.195.337a7.327 7.327 0 0 1-1.327.117c-1.115 0-1.963-.3-2.545-.902-.581-.601-.872-1.547-.872-2.838 0-.547.073-1.053.22-1.518a3.62 3.62 0 0 1 .638-1.21 2.91 2.91 0 0 1 1.019-.799c.4-.19.86-.286 1.379-.286.508 0 .948.08 1.32.242.371.161.674.381.909.66s.408.604.52.975c.113.372.17.768.17 1.188zM18.678 15.955c-.503 1.114-.743 1.61-1.39 2.595-.903 1.374-2.174 3.085-3.75 3.1-1.401.012-1.76-.912-3.661-.902-1.9.01-2.298.918-3.699.905-1.576-.015-2.78-1.56-3.683-2.934C-.03 14.878-.293 10.37 1.263 7.972c1.107-1.703 2.851-2.7 4.492-2.7 1.67 0 2.72.916 4.102.916 1.34 0 2.156-.918 4.087-.918 1.46 0 3.007.795 4.11 2.17-3.612 1.979-3.025 7.137.624 8.515zm-6.12-12.123c-.752.965-2.047 1.712-3.298 1.674-.228-1.244.358-2.525 1.069-3.388.783-.95 2.124-1.68 3.27-1.759.193 1.3-.34 2.572-1.041 3.473z"/></g></g></svg>